<?xml version="1.0" encoding="utf-8"?>
<svg width="64" version="1.1" height="64" viewBox="0 0 64 64" enable-background="new 0 0 64 64" xmlns="http://www.w3.org/2000/svg">
  <g>
    <path d="M 63.386 47.807 L 63.388 47.809 C 63.39 47.812 63.392 47.815 63.394 47.819 C 63.566 48.014 63.692 48.249 63.793 48.497 C 63.825 48.573 63.846 48.645 63.869 48.722 C 63.927 48.913 63.963 49.111 63.975 49.318 C 63.981 49.394 63.993 49.466 63.991 49.544 C 63.991 49.584 64.001 49.62 63.999 49.659 C 63.985 49.898 63.937 50.129 63.863 50.346 C 63.857 50.369 63.841 50.387 63.833 50.41 C 63.745 50.649 63.619 50.861 63.47 51.055 C 63.449 51.082 63.442 51.118 63.42 51.145 L 53.109 63.291 C 52.32 64.221 51.025 64.239 50.215 63.328 C 49.407 62.418 49.392 60.926 50.183 59.994 L 55.741 53.445 C 47.62 54.521 39.637 52.812 39.26 52.728 C 14.614 48.261 -2.827 25.501 0.38 1.992 C 0.539 0.828 1.408 0 2.399 0 C 2.505 0 2.611 0.009 2.719 0.027 C 3.835 0.23 4.597 1.436 4.423 2.723 C 1.566 23.663 17.479 44.005 39.96 48.081 C 40.063 48.105 48.311 49.875 56.077 48.655 L 47.5 43.562 C 46.495 42.964 46.102 41.542 46.619 40.385 C 47.135 39.226 48.367 38.777 49.375 39.368 L 62.895 47.396 C 63.078 47.507 63.242 47.646 63.386 47.807 Z" style="fill: rgb(92, 215, 255);"/>
  </g>
</svg>